<mxfile host="app.diagrams.net" modified="2024-04-14T16:34:15.692Z" agent="Mozilla/5.0 (Macintosh; Intel Mac OS X 10_15_7) AppleWebKit/537.36 (KHTML, like Gecko) Chrome/123.0.0.0 Safari/537.36" version="24.2.2" etag="j583DAfMmwqz_LnOS9rS" type="github">
  <diagram name="Page-1" id="YE1TAmApZvhlKCIu9yRy">
    <mxGraphModel>
      <root>
        <mxCell id="0" />
        <mxCell id="1" parent="0" />
      </root>
    </mxGraphModel>
  </diagram>
</mxfile>
